# xmcd
#
# Track frame offsets:
#	150
#	3230
#	23706
#	43053
#	60211
#	83354
#	115681
#	143404
#	164685
#	184914
#	205476
#	224693
#
# Disc length: 3313 seconds
#
# Revision: 1
# Processed by: cddbd v1.5.2PL0 Copyright (c) Steve Scherf et al.
# Submitted via: audiograbber 1.83.01
#
DISCID=9a0cef0c
DTITLE=DEAN COLLINS - GO BIG OR GO HOME
DYEAR=2006
DGENRE=Country
TTITLE0=INTRO
TTITLE1=IT´S ALWAYS THE SAME OLD STORY
TTITLE2=MUCH TO FAST
TTITLE3=SHE WAS NEVER FAR AWAY
TTITLE4=DEVIL IN DISGUISE
TTITLE5=BUFFALO RIVER HOME
TTITLE6=SEE YOU TONIGHT
TTITLE7=EASY COME EASY GO
TTITLE8=THE TRUE STORY OF THE REAL HARLEY JOHNSON
TTITLE9=BEAUTIFUL MISTAKE
TTITLE10=U-TURN
TTITLE11=TAKE ME HOME ( FEAT. THE HARLEM GOSPEL CHOIR/NY)
EXTD=
EXTT0=
EXTT1=
EXTT2=
EXTT3=
EXTT4=
EXTT5=
EXTT6=
EXTT7=
EXTT8=
EXTT9=
EXTT10=
EXTT11=
PLAYORDER=
